<svg xmlns="http://www.w3.org/2000/svg" viewBox="0 0 280.78 184.62"><defs><style>.cls-1{fill:#fff;fill-rule:evenodd;}</style></defs><g id="Lager_1" data-name="Lager 1"><path class="cls-1" d="M19.46,8C17,3.65,17,3.65,17,3.66c-3.16,2.05-5,3.94-7.83,7.8-12.49,17-11.62,51.51,0,71.22,8.1,14.93,23.7,29.93,36,40.82-1.14,3.68-1.9,6.3-2.71,9.38l4.84,1.24-4.84-1.24c-.45.64,0,35.44-.16,36.13l3,1.31,2-4.57-2,4.57c27.93,13.52,64,15.22,95.29,14.66,31.27.55,67.36-1.14,95.29-14.66l-2-4.57,2,4.57,3-1.31c-.15-.6.28-35.61-.16-36.13l-4.84,1.24,4.84-1.24h0c-.81-3.08-1.57-5.69-2.71-9.38,12.26-10.9,27.86-25.88,36-40.82,11.59-19.68,12.46-54.26,0-71.22C269,7.6,267.17,5.71,264,3.66c0,0,0,0-2.47,4.34L264,3.65,258.36.45c-5.85,24.86-22.29,61.84-47.65,70.82C196.79,55.55,174.8,47.8,156.35,42.7c-.32-.07-.06-.16-1.35,4.8s1.22-4.83,1.22-4.83c-8.06-.5-23.38-.49-31.44,0l1.16,4.87c-1.27-5-1-4.9-1.28-4.84-18.45,5.1-40.45,12.85-54.37,28.57C44.91,62.26,28.51,25.34,22.64.45L17,3.65ZM64.15,79.65C42.6,71.51,23.6,39,17.18,17.46,7.06,31.68,8.21,61.61,18,78c6.18,11.68,20.19,25.77,30.56,35.16C52.2,102.89,57.48,90.11,64.15,79.65Zm66.79-27.21c4.77-.16,14.36-.17,19.12,0v83.74c-5.79.07-13.33.07-19.12,0Zm-10,83.53V54.12C77.85,65.34,65.11,90.88,53.56,130A541.88,541.88,0,0,0,120.94,136Zm39.12,0a541.71,541.71,0,0,0,67.38-6c-11.56-39.18-24.32-64.68-67.38-75.89Zm56.79-56.32c6.67,10.46,12,23.24,15.62,33.53C242.84,103.78,256.84,89.7,263,78c9.76-16.36,10.91-46.4.79-60.56C257.42,39,238.38,71.54,216.85,79.65Zm11.93,60.27v22.5c-25.93,12-59.24,12.9-88.28,12.56-29,.34-62.34-.58-88.28-12.56v-22.5A607.36,607.36,0,0,0,228.78,139.92Z" transform="translate(-0.11 -0.45)"/></g></svg>