<svg width="281" height="185" viewBox="0 0 281 185" fill="none" xmlns="http://www.w3.org/2000/svg">
<path d="M47.22 134.118V165.746C47.22 165.746 65.3985 173.745 82.2567 176.816C102.257 180.46 140.5 179.979 140.5 179.979C140.5 179.979 178.743 180.46 198.743 176.816C215.601 173.745 233.78 165.746 233.78 165.746V134.118M47.22 134.118C47.22 134.118 75.6458 138.572 93.8598 139.653C106.652 140.412 115.497 140.885 125.939 141.099M47.22 134.118C47.22 134.118 48.487 129.15 50.8545 121.862M125.939 47.5354L140.688 47.2609L155.061 47.5354M125.939 47.5354C125.939 47.5354 92.5638 55.4969 76.3414 72.0473C74.9334 73.4838 73.5673 75.0763 72.2451 76.7916M125.939 47.5354V141.099M233.78 134.118C233.78 134.118 205.354 138.572 187.14 139.653C174.348 140.412 165.503 140.885 155.061 141.099M233.78 134.118C233.78 134.118 232.513 129.151 230.145 121.862M155.061 47.5354V141.099M155.061 47.5354C155.061 47.5354 188.436 55.4971 204.659 72.0475C206.067 73.4839 207.433 75.0764 208.755 76.7917M125.939 141.099C130.365 141.19 135.078 141.234 140.5 141.234C145.922 141.234 150.635 141.19 155.061 141.099M50.8545 121.862C54.9619 109.217 62.3816 89.5875 72.2451 76.7916M50.8545 121.862C50.8545 121.862 23.3502 98.9314 13.5487 80.3498C6.66676 67.3031 3.95578 53.0704 5.35841 38.4423C7.63296 14.721 19.4639 8 19.4639 8C19.4639 8 27.5112 38.3865 44.2621 57.8146C60.0609 76.1384 72.2451 76.7916 72.2451 76.7916M230.145 121.862C226.038 109.218 218.618 89.5877 208.755 76.7917M230.145 121.862C230.145 121.862 257.65 98.9316 267.451 80.35C274.333 67.3033 277.044 53.0705 275.642 38.4424C273.367 14.7212 261.536 8.00016 261.536 8.00016C261.536 8.00016 253.489 38.3867 236.738 57.8147C220.939 76.1386 208.755 76.7917 208.755 76.7917" stroke="white" stroke-width="10"/>
</svg>
