<svg xmlns="http://www.w3.org/2000/svg" viewBox="0 0 512 512"><g id="Lager_2" data-name="Lager 2"><g id="Lager_1-2" data-name="Lager 1"><g id="crust"><path d="M256,15a241.07,241.07,0,0,1,93.8,463.07A241.07,241.07,0,0,1,162.2,33.93,239.51,239.51,0,0,1,256,15m0-15C114.62,0,0,114.62,0,256S114.62,512,256,512,512,397.38,512,256,397.38,0,256,0Z"/></g><g id="cheese"><path d="M256,41.31c10.8,0,21.85,4.06,33.54,8.35,6.45,2.36,13.11,4.81,20,6.65,7.12,1.9,14.27,3.16,21.18,4.38,12.21,2.16,23.74,4.2,32.65,9.35s16.57,14.23,24.52,23.75c4.49,5.36,9.12,10.91,14.28,16.06s10.7,9.79,16.07,14.28c9.51,8,18.5,15.46,23.74,24.52,5.15,8.91,7.19,20.44,9.35,32.65,1.22,6.91,2.48,14.06,4.38,21.18,1.84,6.87,4.29,13.53,6.65,20,4.29,11.69,8.35,22.74,8.35,33.54s-4.06,21.85-8.35,33.54c-2.36,6.45-4.81,13.11-6.65,20-1.9,7.12-3.16,14.27-4.38,21.18-2.16,12.21-4.2,23.74-9.35,32.65s-14.23,16.57-23.75,24.52c-5.36,4.49-10.91,9.12-16.06,14.28s-9.79,10.7-14.28,16.07c-7.95,9.51-15.46,18.5-24.52,23.74s-20.44,7.19-32.65,9.35c-6.91,1.22-14.06,2.48-21.18,4.38-6.87,1.84-13.53,4.29-20,6.65-11.69,4.29-22.74,8.35-33.54,8.35s-21.85-4.06-33.54-8.35c-6.45-2.36-13.11-4.81-20-6.65-7.12-1.9-14.27-3.16-21.18-4.38-12.21-2.16-23.74-4.2-32.65-9.35-9.06-5.24-16.57-14.23-24.52-23.75-4.49-5.36-9.12-10.91-14.28-16.06s-10.7-9.79-16.07-14.28c-9.51-7.95-18.5-15.46-23.74-24.52s-7.19-20.44-9.35-32.65c-1.22-6.91-2.48-14.06-4.38-21.18-1.84-6.87-4.29-13.53-6.65-20-4.29-11.69-8.35-22.74-8.35-33.54s4.06-21.85,8.35-33.54c2.36-6.45,4.81-13.11,6.65-20,1.9-7.12,3.16-14.27,4.38-21.18,2.16-12.21,4.2-23.74,9.35-32.65,5.24-9.06,14.23-16.57,23.75-24.52,5.36-4.49,10.91-9.12,16.06-14.28s9.79-10.7,14.28-16.07c8-9.51,15.46-18.5,24.52-23.74,8.91-5.15,20.44-7.19,32.64-9.35,6.92-1.22,14.07-2.48,21.19-4.38,6.87-1.84,13.53-4.29,20-6.65,11.69-4.29,22.74-8.35,33.54-8.35m0-15c-20.21,0-38.76,10.52-57.4,15.51C179.32,47,158,47.29,141.14,57.05,124,67,113.14,85.35,99.25,99.24S67,124,57.05,141.14C47.29,158,47,179.32,41.82,198.6c-5,18.64-15.51,37.19-15.51,57.4s10.52,38.76,15.51,57.4C47,332.68,47.29,354,57.05,370.86c9.91,17.13,28.3,28,42.19,41.9S124,445,141.14,455C158,464.71,179.32,465,198.6,470.18c18.64,5,37.19,15.51,57.4,15.51s38.76-10.52,57.4-15.51C332.68,465,354,464.71,370.86,455c17.13-9.91,28-28.3,41.9-42.19S445,388,455,370.86C464.71,354,465,332.68,470.18,313.4c5-18.64,15.51-37.19,15.51-57.4s-10.52-38.76-15.51-57.4C465,179.32,464.71,158,455,141.14c-9.91-17.13-28.3-28-42.19-41.89S388,67,370.86,57.05C354,47.29,332.68,47,313.4,41.82c-18.64-5-37.19-15.51-57.4-15.51Z"/></g><g id="salami"><path d="M147.16,110.75a17.5,17.5,0,1,1-17.5,17.5,17.52,17.52,0,0,1,17.5-17.5m0-7.5a25,25,0,1,0,25,25,25,25,0,0,0-25-25Z"/></g><g id="champinjon"><g id="champinjon-2" data-name="champinjon"><path d="M247.27,85a17.5,17.5,0,0,1,12.37,29.87l-.47.45c-.88-1.07-2-2.65-2.87-3.92a71.77,71.77,0,0,0-8-10,71.89,71.89,0,0,0-10-8c-1.27-.88-2.86-2-3.93-2.87l.45-.47A17.41,17.41,0,0,1,247.27,85m0-7.5a24.93,24.93,0,0,0-17.68,7.32C219.83,94.62,233.26,97,243,106.78c7.37,7.37,10.54,16.83,15.85,16.83,1.73,0,3.68-1,6.07-3.4a25,25,0,0,0-17.67-42.67Z"/></g><g id="champinjon-3" data-name="champinjon"><path d="M236.46,105.57a35.57,35.57,0,0,0,8.48,8.48c-3.24,3.23-9.47,9.21-12.83,9.21-.33,0-1.3,0-3.08-1.78-2.33-2.32-4.17-4.17,7.43-15.91m1.59-10.95c-1.06,0-2.7,1.44-6.19,4.94-9.77,9.77-16.92,18.44-8.14,27.23,2.8,2.79,5.58,4,8.39,4,6,0,12.18-5.45,18.84-12.11,9.76-9.76,3.48-5-5.31-13.78C240,99.23,240,94.62,238.05,94.62Z"/></g></g><g id="champinjon-4" data-name="champinjon"><g id="champinjon-5" data-name="champinjon"><path d="M353.16,93.75a17.52,17.52,0,0,1,17.5,17.5c0,.24,0,.45,0,.64-1.31-.11-3-.42-4.8-.74a58.12,58.12,0,0,0-25.36,0c-1.79.32-3.5.63-4.81.74,0-.19,0-.4,0-.64a17.52,17.52,0,0,1,17.5-17.5m0-7.5a25,25,0,0,0-25,25c0,6.48,2.46,8.2,6.51,8.2,4.57,0,11.16-2.2,18.49-2.2s13.92,2.2,18.49,2.2c4,0,6.51-1.72,6.51-8.2a25,25,0,0,0-25-25Z"/></g><g id="champinjon-6" data-name="champinjon"><path d="M347.66,121a35.49,35.49,0,0,0,12,0c-.09,16.51-2.7,16.51-6,16.51s-5.9,0-6-16.51m17.73-9.19c-1.74,0-5.14,2.2-11.73,2.2s-10-2.2-11.73-2.2c-1.54,0-1.77,1.72-1.77,8.2,0,13.81,1.07,25,13.5,25s13.5-11.19,13.5-25c0-6.48-.24-8.2-1.77-8.2Z"/></g></g><g id="champinjon-7" data-name="champinjon"><g id="champinjon-8" data-name="champinjon"><path d="M155.05,185a17.39,17.39,0,0,1,12.37,5.12l.45.47c-1.06.88-2.65,2-3.92,2.87a71.89,71.89,0,0,0-10,8,71.77,71.77,0,0,0-8,10c-.89,1.27-2,2.85-2.88,3.92l-.47-.45A17.5,17.5,0,0,1,155.05,185m0-7.5a25,25,0,0,0-17.68,42.67c2.39,2.4,4.35,3.4,6.07,3.4,5.31,0,8.48-9.46,15.85-16.83,9.76-9.77,23.2-12.16,13.44-21.92a24.94,24.94,0,0,0-17.68-7.32Z"/></g><g id="champinjon-9" data-name="champinjon"><path d="M166.56,204.86c3.8,3.83,7.38,7.75,8.73,10.91.69,1.61,1,2.72-1.3,5-1.77,1.77-2.75,1.77-3.07,1.77-3.37,0-9.59-6-12.84-9.21a35.57,35.57,0,0,0,8.48-8.48M165,193.92c-1.89,0-2,4.6-7.59,10.24-8.79,8.79-15.07,4-5.31,13.79,6.66,6.66,12.82,12.1,18.85,12.1,2.8,0,5.59-1.18,8.38-4,8.78-8.79,1.63-17.46-8.13-27.23-3.5-3.5-5.14-4.93-6.2-4.93Z"/></g></g><g id="salami-2" data-name="salami"><path d="M240.16,169.75a17.5,17.5,0,1,1-17.5,17.5,17.52,17.52,0,0,1,17.5-17.5m0-7.5a25,25,0,1,0,25,25,25,25,0,0,0-25-25Z"/></g><g id="salami-3" data-name="salami"><path d="M106.16,241.75a17.5,17.5,0,1,1-17.5,17.5,17.52,17.52,0,0,1,17.5-17.5m0-7.5a25,25,0,1,0,25,25,25,25,0,0,0-25-25Z"/></g><g id="champinjon-10" data-name="champinjon"><g id="champinjon-11" data-name="champinjon"><path d="M269.05,256a17.39,17.39,0,0,1,12.37,5.12l.45.47c-1.06.88-2.65,2-3.92,2.87A57.71,57.71,0,0,0,260,282.44c-.89,1.27-2,2.85-2.88,3.92l-.47-.45A17.5,17.5,0,0,1,269.05,256m0-7.5a25,25,0,0,0-17.68,42.67c2.39,2.4,4.35,3.4,6.07,3.4,5.31,0,8.48-9.46,15.85-16.83,9.76-9.77,23.2-12.16,13.44-21.92a24.94,24.94,0,0,0-17.68-7.32Z"/></g><g id="champinjon-12" data-name="champinjon"><path d="M280.56,275.86c3.8,3.83,7.38,7.75,8.73,10.91.69,1.61,1,2.72-1.3,5-1.77,1.77-2.75,1.77-3.07,1.77-3.37,0-9.59-6-12.84-9.21a35.57,35.57,0,0,0,8.48-8.48M279,264.92c-1.89,0-2,4.6-7.59,10.24-8.79,8.79-15.07,4-5.31,13.79,6.66,6.66,12.82,12.1,18.85,12.1,2.8,0,5.59-1.18,8.38-4,8.78-8.79,1.63-17.46-8.13-27.23-3.5-3.5-5.14-4.93-6.2-4.93Z"/></g></g><g id="champinjon-13" data-name="champinjon"><g id="champinjon-14" data-name="champinjon"><path d="M119.16,309.75a17.52,17.52,0,0,1,17.5,17.5c0,.24,0,.45,0,.64-1.31-.11-3-.42-4.8-.74a72.13,72.13,0,0,0-12.68-1.4,72,72,0,0,0-12.68,1.4c-1.79.32-3.5.63-4.81.74,0-.19,0-.4,0-.64a17.52,17.52,0,0,1,17.5-17.5m0-7.5a25,25,0,0,0-25,25c0,6.48,2.46,8.2,6.51,8.2,4.57,0,11.16-2.2,18.49-2.2s13.92,2.2,18.49,2.2c4,0,6.51-1.72,6.51-8.2a25,25,0,0,0-25-25Z"/></g><g id="champinjon-15" data-name="champinjon"><path d="M113.66,337a35.49,35.49,0,0,0,12,0c-.09,16.51-2.7,16.51-6,16.51s-5.9,0-6-16.51m17.73-9.19c-1.74,0-5.14,2.2-11.73,2.2s-10-2.2-11.73-2.2c-1.54,0-1.77,1.72-1.77,8.2,0,13.81,1.07,25,13.5,25s13.5-11.19,13.5-25c0-6.48-.24-8.2-1.77-8.2Z"/></g></g><g id="salami-4" data-name="salami"><path d="M191.16,313.75a17.5,17.5,0,1,1-17.5,17.5,17.52,17.52,0,0,1,17.5-17.5m0-7.5a25,25,0,1,0,25,25,25,25,0,0,0-25-25Z"/></g><g id="salami-5" data-name="salami"><path d="M240.16,389.75a17.5,17.5,0,1,1-17.5,17.5,17.52,17.52,0,0,1,17.5-17.5m0-7.5a25,25,0,1,0,25,25,25,25,0,0,0-25-25Z"/></g><g id="salami-6" data-name="salami"><path d="M422.16,187.75a17.5,17.5,0,1,1-17.5,17.5,17.52,17.52,0,0,1,17.5-17.5m0-7.5a25,25,0,1,0,25,25,25,25,0,0,0-25-25Z"/></g><g id="champinjon-16" data-name="champinjon"><g id="champinjon-17" data-name="champinjon"><path d="M426.53,303.58c.14.13.3.28.46.45a17.5,17.5,0,1,1-24.74,24.75c-.17-.17-.32-.32-.45-.47,1.06-.88,2.65-2,3.92-2.87a57.82,57.82,0,0,0,17.93-17.93c.89-1.27,2-2.86,2.88-3.93m-.3-8.24c-5.31,0-8.48,9.46-15.85,16.82-9.77,9.77-23.2,12.16-13.44,21.92a25,25,0,0,0,35.36-35.35c-2.4-2.4-4.35-3.39-6.07-3.39Z"/></g><g id="champinjon-18" data-name="champinjon"><path d="M398.75,296.39c3.37,0,9.59,6,12.84,9.21a35.57,35.57,0,0,0-8.48,8.48c-3.8-3.83-7.39-7.75-8.73-10.91-.69-1.61-1-2.72,1.29-5,1.78-1.78,2.76-1.78,3.08-1.78m0-7.5c-2.81,0-5.59,1.18-8.38,4-8.79,8.79-1.63,17.46,8.13,27.23,3.5,3.5,5.14,4.94,6.2,4.94,1.89,0,1.95-4.61,7.59-10.25,8.79-8.78,15.07-4,5.3-13.78-6.66-6.66-12.81-12.11-18.84-12.11Z"/></g></g><g id="salami-7" data-name="salami"><path d="M359.16,241.75a17.5,17.5,0,1,1-17.5,17.5,17.52,17.52,0,0,1,17.5-17.5m0-7.5a25,25,0,1,0,25,25,25,25,0,0,0-25-25Z"/></g><g id="salami-8" data-name="salami"><path d="M340.16,333.75a17.5,17.5,0,1,1-17.5,17.5,17.52,17.52,0,0,1,17.5-17.5m0-7.5a25,25,0,1,0,25,25,25,25,0,0,0-25-25Z"/></g><g id="salami-9" data-name="salami"><path d="M327.16,162.75a17.5,17.5,0,1,1-17.5,17.5,17.52,17.52,0,0,1,17.5-17.5m0-7.5a25,25,0,1,0,25,25,25,25,0,0,0-25-25Z"/></g></g></g></svg>